<svg width="35" height="37" viewBox="0 0 35 37" fill="none" xmlns="http://www.w3.org/2000/svg">
<path d="M17.5 37C18.6413 37 19.5766 36.1128 19.7351 34.857C21.3043 23.6733 22.7468 22.1163 32.9236 20.8942C34.0964 20.7435 35 19.7055 35 18.5001C35 17.2778 34.1123 16.2733 32.9393 16.0892C22.8261 14.5991 21.5739 13.2932 19.7351 2.12634C19.529 0.887402 18.6254 0 17.5 0C16.3429 0 15.4234 0.887402 15.2333 2.14299C13.6957 13.31 12.2532 14.867 2.09237 16.0892C0.887654 16.2567 0 17.2611 0 18.5001C0 19.7055 0.855963 20.71 2.06068 20.8942C12.1897 22.4177 13.4261 23.7068 15.2333 34.8738C15.471 36.1294 16.3904 37 17.5 37Z" fill="#FFC9F0"/>
</svg>
